<svg width="20" height="20" viewBox="0 0 20 20" fill="none" xmlns="http://www.w3.org/2000/svg">
<path fill-rule="evenodd" clip-rule="evenodd" d="M10 6.36364C9.03558 6.36364 8.11065 6.74675 7.4287 7.4287C6.74675 8.11065 6.36364 9.03558 6.36364 10C6.36364 10.9644 6.74675 11.8893 7.4287 12.5713C8.11065 13.2532 9.03558 13.6364 10 13.6364C10.9644 13.6364 11.8893 13.2532 12.5713 12.5713C13.2532 11.8893 13.6364 10.9644 13.6364 10C13.6364 9.03558 13.2532 8.11065 12.5713 7.4287C11.8893 6.74675 10.9644 6.36364 10 6.36364ZM8.71435 8.71435C9.05533 8.37338 9.51779 8.18182 10 8.18182C10.4822 8.18182 10.9447 8.37338 11.2856 8.71435C11.6266 9.05533 11.8182 9.51779 11.8182 10C11.8182 10.4822 11.6266 10.9447 11.2856 11.2856C10.9447 11.6266 10.4822 11.8182 10 11.8182C9.51779 11.8182 9.05533 11.6266 8.71435 11.2856C8.37338 10.9447 8.18182 10.4822 8.18182 10C8.18182 9.51779 8.37338 9.05533 8.71435 8.71435Z" fill="#989BA2"/>
<path fill-rule="evenodd" clip-rule="evenodd" d="M9.07364 0C8.66068 0 8.29961 0.27833 8.19449 0.677679L7.7338 2.42786L6.27013 3.04487L5.14972 2.04807C4.78998 1.72803 4.2431 1.74398 3.90263 2.08445L2.08445 3.90263C1.75508 4.232 1.72795 4.75702 2.02161 5.11859L3.00354 6.32759L2.4014 7.80898L0.702412 8.20562C0.291019 8.30167 0 8.66845 0 9.09091V10.9091C0 11.319 0.274352 11.6782 0.669832 11.7861L2.42591 12.2652L3.04458 13.7328L2.04878 14.8495C1.72804 15.2092 1.74369 15.7566 2.08445 16.0974L3.90263 17.9156C4.23244 18.2454 4.75834 18.2721 5.11986 17.9774L6.32844 16.9921L7.77341 17.5865L8.20949 19.3135C8.31142 19.7172 8.67456 20 9.09091 20H10.9091C11.3253 20 11.6883 19.7174 11.7904 19.3139L12.2276 17.5862L13.7209 16.9677C13.8712 17.0937 14.0436 17.2417 14.2151 17.3911C14.3855 17.5395 14.5439 17.6793 14.6598 17.7822C14.7177 17.8335 14.7648 17.8755 14.7974 17.9046L14.8468 17.9488C15.2063 18.2713 15.7559 18.2571 16.0974 17.9156L17.9156 16.0974C18.2501 15.7628 18.2721 15.2275 17.9661 14.8666L16.9758 13.6988L17.5886 12.2187L19.3195 11.769C19.7203 11.6648 20 11.3031 20 10.8891V9.09091C20 8.67516 19.718 8.31239 19.3151 8.20988L17.5948 7.77222L16.9836 6.29576L17.967 5.13232C18.2721 4.77136 18.2498 4.23683 17.9156 3.90263L16.0974 2.08445C15.7618 1.74889 15.2246 1.72789 14.8639 2.03622L13.709 3.02334L12.1805 2.3949L11.7292 0.677971C11.6242 0.278479 11.2631 0 10.85 0H9.07364ZM16.0378 15.4038L15.4158 16.0258L15.409 16.0198C15.0733 15.7275 14.6408 15.3576 14.3969 15.1832C14.1416 15.0007 13.8102 14.9627 13.5203 15.0828L11.1103 16.081C10.8451 16.1909 10.6473 16.4196 10.5769 16.6979L10.2014 18.1818H9.79898L9.42415 16.6974C9.35363 16.4182 9.15495 16.1888 8.88857 16.0793L6.51948 15.1047C6.21099 14.9778 5.85778 15.0301 5.59923 15.2408L4.60758 16.0492L3.97719 15.4188L4.78395 14.5141C5.0175 14.2522 5.07947 13.8793 4.94316 13.556L3.92952 11.1514C3.82107 10.8941 3.60042 10.701 3.33108 10.6275L1.81818 10.2148V9.81221L3.27304 9.47256C3.56045 9.40546 3.7974 9.20301 3.90854 8.92959L4.89036 6.51414C5.01523 6.20693 4.96292 5.8561 4.75385 5.59869L3.94974 4.60863L4.58189 3.97648L5.49028 4.78465C5.75217 5.01765 6.12468 5.07932 6.44768 4.94316L8.85222 3.92952C9.11212 3.81996 9.30644 3.59598 9.37824 3.32323L9.7744 1.81818H10.149L10.5371 3.29476C10.6096 3.57037 10.8071 3.79606 11.0707 3.90443L13.5316 4.91625C13.8471 5.04597 14.2086 4.98815 14.4679 4.7665L15.4062 3.96455L16.0387 4.5971L15.2375 5.54495C15.018 5.8047 14.9618 6.16528 15.0919 6.47953L16.0891 8.88862C16.1988 9.15357 16.4271 9.35123 16.7049 9.42194L18.1818 9.79767V10.186L16.6932 10.5729C16.4173 10.6446 16.1909 10.8416 16.0819 11.105L15.0837 13.5159C14.9534 13.8306 15.01 14.1918 15.2303 14.4516L16.0378 15.4038Z" fill="#989BA2"/>
</svg>
