<svg width="212" height="34" viewBox="0 0 212 34" fill="none" xmlns="http://www.w3.org/2000/svg">
<path d="M18.5312 1.00781V28.5469C18.5312 29.1562 18.6484 29.5938 18.8828 29.8594C19.0078 30.0156 19.125 30.1172 19.2344 30.1641C19.3438 30.1953 19.7031 30.2891 20.3125 30.4453C21.0625 30.6172 21.4375 31.0469 21.4375 31.7344C21.4375 32.1406 21.2344 32.4688 20.8281 32.7188C20.5312 32.9062 20.0312 33 19.3281 33H18.5547H8.10156H7.32812C6.64062 33 6.11719 32.8984 5.75781 32.6953C5.41406 32.4766 5.24219 32.1562 5.24219 31.7344C5.24219 31.0469 5.61719 30.6172 6.36719 30.4453C6.97656 30.2891 7.33594 30.1953 7.44531 30.1641C7.55469 30.1172 7.66406 30.0156 7.77344 29.8594C8.00781 29.5938 8.125 29.1562 8.125 28.5469V1.00781H18.5312ZM26.6406 1.00781V10.5938C26.6406 11.0469 26.5078 11.4141 26.2422 11.6953C25.9922 11.9766 25.6641 12.1172 25.2578 12.1172C24.8672 12.1172 24.5391 11.9922 24.2734 11.7422C24.0234 11.4766 23.8594 11.1172 23.7812 10.6641L23.5469 9.23438C23.3125 7.78125 22.8594 6.52344 22.1875 5.46094C21.7656 4.80469 21.1953 4.26562 20.4766 3.84375V1.00781H26.6406ZM0.0625 1.00781H6.22656V3.84375C5.49219 4.26562 4.92188 4.80469 4.51562 5.46094C3.84375 6.52344 3.39062 7.78125 3.15625 9.23438L2.92188 10.6641C2.84375 11.1172 2.67188 11.4766 2.40625 11.7422C2.15625 11.9922 1.83594 12.1172 1.44531 12.1172C1.03906 12.1172 0.703125 11.9766 0.4375 11.6953C0.1875 11.4141 0.0625 11.0469 0.0625 10.5938V1.00781ZM42.3203 1.00781V28.5469C42.3203 29.1562 42.4375 29.5938 42.6719 29.8594C42.7969 30.0156 42.9141 30.1172 43.0234 30.1641C43.1328 30.1953 43.4922 30.2891 44.1016 30.4453C44.8516 30.6172 45.2266 31.0469 45.2266 31.7344C45.2266 32.1406 45.0234 32.4688 44.6172 32.7188C44.3203 32.9062 43.8281 33 43.1406 33H42.3438H31.8906H31.2812C30.7188 33 30.2812 32.8984 29.9688 32.6953C29.6719 32.4766 29.5234 32.1719 29.5234 31.7812C29.5234 31.1406 29.8359 30.7188 30.4609 30.5156C30.9766 30.3438 31.2734 30.2422 31.3516 30.2109C31.4453 30.1641 31.5391 30.0703 31.6328 29.9297C31.8203 29.6797 31.9141 29.2812 31.9141 28.7344V5.27344C31.9141 4.72656 31.8203 4.32813 31.6328 4.07812C31.5391 3.9375 31.4453 3.85156 31.3516 3.82031C31.2734 3.77344 30.9766 3.66406 30.4609 3.49219C29.8359 3.28906 29.5234 2.86719 29.5234 2.22656C29.5234 1.83594 29.6719 1.53906 29.9688 1.33594C30.2812 1.11719 30.7188 1.00781 31.2812 1.00781H31.8906H42.3203ZM49.5156 17.3203C50.9531 17.5391 52.0547 17.7812 52.8203 18.0469C53.6016 18.3125 54.3047 18.6719 54.9297 19.125C55.5859 19.6094 56.0859 20.1875 56.4297 20.8594C56.7891 21.5312 56.9688 22.2422 56.9688 22.9922V27.8438C56.9688 28.3438 57.1328 28.5938 57.4609 28.5938C57.5859 28.5938 57.6875 28.5625 57.7656 28.5C57.8594 28.4219 57.9844 28.2812 58.1406 28.0781C58.5312 27.5469 58.9297 27.2812 59.3359 27.2812C59.6016 27.2812 59.8672 27.4219 60.1328 27.7031C60.3984 27.9844 60.5312 28.2656 60.5312 28.5469C60.5312 29.0312 60.2969 29.625 59.8281 30.3281C59.375 31.0156 58.8047 31.6328 58.1172 32.1797C57.4766 32.6953 56.7812 33.0625 56.0312 33.2812C55.2812 33.5156 54.3984 33.6328 53.3828 33.6328C51.3203 33.6328 49.7109 33.0469 48.5547 31.875C47.3984 30.6875 46.8203 29.0391 46.8203 26.9297V22.9922C46.8203 22.1172 46.8125 21.6094 46.7969 21.4688C46.7188 20.8438 46.5 20.3047 46.1406 19.8516C45.6875 19.3047 45.0391 18.9844 44.1953 18.8906V16.3828C45.0391 16.2578 45.6406 16.0391 46 15.7266C46.3125 15.4453 46.5234 15.125 46.6328 14.7656C46.7578 14.4062 46.8203 13.875 46.8203 13.1719V6.96094C46.8203 5.97656 46.625 5.24219 46.2344 4.75781C45.8594 4.27344 45.1719 3.89062 44.1719 3.60938V1.00781H44.7812C46.5156 1.00781 47.9922 1.07031 49.2109 1.19531C51.0234 1.36719 52.6406 1.96094 54.0625 2.97656C56.1094 4.42969 57.1328 6.5 57.1328 9.1875C57.1328 11.3906 56.4453 13.1953 55.0703 14.6016C54.4922 15.1953 53.8125 15.6797 53.0312 16.0547C52.2656 16.4297 51.0938 16.8516 49.5156 17.3203ZM72.4844 1.00781H81.9297L88.4453 28.5469C88.5703 29.0312 88.7109 29.4609 88.8672 29.8359C89.0078 30.1328 89.3203 30.375 89.8047 30.5625C90.2109 30.7344 90.4922 30.9062 90.6484 31.0781C90.8047 31.25 90.8828 31.4844 90.8828 31.7812C90.8828 32.5938 90.2734 33 89.0547 33H77.3594C76.8906 33 76.5156 32.8906 76.2344 32.6719C75.9531 32.4375 75.8125 32.1328 75.8125 31.7578C75.8125 31.4453 75.875 31.2109 76 31.0547C76.125 30.8984 76.4062 30.7031 76.8438 30.4688C77.1562 30.3125 77.375 30.1406 77.5 29.9531C77.625 29.7656 77.6875 29.5312 77.6875 29.25C77.6875 28.9844 77.6641 28.75 77.6172 28.5469L76.8672 25.1484H70.3281L70.9609 22.3594H76.2109L71.8984 3.30469L72.4844 1.00781ZM70.8672 6.96094L72.0625 11.8125L67.9141 26.9531C67.7891 27.3906 67.7266 27.7969 67.7266 28.1719C67.7266 29.1562 68.1875 29.8594 69.1094 30.2812L69.9297 30.6562C70.4453 30.8906 70.7031 31.2812 70.7031 31.8281C70.7031 32.6094 70.1328 33 68.9922 33H63.0391C62.4609 33 62 32.8828 61.6562 32.6484C61.3281 32.3984 61.1641 32.0625 61.1641 31.6406C61.1641 31.1875 61.5078 30.8125 62.1953 30.5156C62.8359 30.2344 63.3047 29.9844 63.6016 29.7656C63.9141 29.5312 64.2109 29.2188 64.4922 28.8281C64.9297 28.1875 65.2891 27.3359 65.5703 26.2734L70.8672 6.96094ZM105.602 1.00781V33H95.1719H94.5625C94 33 93.5625 32.8984 93.25 32.6953C92.9531 32.4766 92.8047 32.1719 92.8047 31.7812C92.8047 31.1406 93.1172 30.7188 93.7422 30.5156C94.2578 30.3438 94.5547 30.2422 94.6328 30.2109C94.7266 30.1641 94.8203 30.0703 94.9141 29.9297C95.1016 29.6797 95.1953 29.2812 95.1953 28.7344V5.27344C95.1953 4.72656 95.1016 4.32813 94.9141 4.07812C94.8203 3.9375 94.7266 3.85156 94.6328 3.82031C94.5547 3.77344 94.2578 3.66406 93.7422 3.49219C93.1172 3.28906 92.8047 2.86719 92.8047 2.22656C92.8047 1.83594 92.9531 1.53906 93.25 1.33594C93.5625 1.11719 94 1.00781 94.5625 1.00781H95.1719H105.602ZM110.336 26.2969V7.80469C110.336 6.66406 110.172 5.75781 109.844 5.08594C109.641 4.64844 109.391 4.32813 109.094 4.125C108.797 3.92187 108.328 3.75 107.688 3.60938V1.00781C108.516 1.00781 109.219 1.03906 109.797 1.10156C111.781 1.32031 113.703 2.16406 115.562 3.63281C117.406 5.05469 118.773 6.90625 119.664 9.1875C120.586 11.5 121.047 14.0625 121.047 16.875C121.047 20.0625 120.461 22.8984 119.289 25.3828C118.117 27.8516 116.438 29.7969 114.25 31.2188C113.188 31.9062 112.195 32.375 111.273 32.625C110.367 32.875 109.172 33 107.688 33V30.4688C108.344 30.2969 108.797 30.1406 109.047 30C109.312 29.8594 109.539 29.6406 109.727 29.3438C109.961 29 110.117 28.6172 110.195 28.1953C110.289 27.7578 110.336 27.125 110.336 26.2969ZM136.727 1.00781V33H126.297H125.688C125.125 33 124.688 32.8984 124.375 32.6953C124.078 32.4766 123.93 32.1719 123.93 31.7812C123.93 31.1406 124.242 30.7188 124.867 30.5156C125.383 30.3438 125.68 30.2422 125.758 30.2109C125.852 30.1641 125.945 30.0703 126.039 29.9297C126.227 29.6797 126.32 29.2812 126.32 28.7344V5.27344C126.32 4.72656 126.227 4.32813 126.039 4.07812C125.945 3.9375 125.852 3.85156 125.758 3.82031C125.68 3.77344 125.383 3.66406 124.867 3.49219C124.242 3.28906 123.93 2.86719 123.93 2.22656C123.93 1.83594 124.078 1.53906 124.375 1.33594C124.688 1.11719 125.125 1.00781 125.688 1.00781H126.297H136.727ZM138.812 1.00781H148.258V9.30469C148.258 9.78906 148.164 10.1406 147.977 10.3594C147.789 10.5781 147.492 10.6875 147.086 10.6875C146.742 10.6875 146.492 10.6172 146.336 10.4766C146.18 10.3359 146.031 10.0469 145.891 9.60938C145.297 7.79688 144.422 6.41406 143.266 5.46094C142.125 4.50781 140.641 3.9375 138.812 3.75V1.00781ZM138.695 18.0703V15.3516C139.602 14.9141 140.273 14.4375 140.711 13.9219C141.148 13.4062 141.469 12.7188 141.672 11.8594C141.797 11.2656 141.961 10.8594 142.164 10.6406C142.367 10.4062 142.656 10.2891 143.031 10.2891C143.531 10.2891 143.875 10.4844 144.062 10.875C144.172 11.0781 144.227 11.5391 144.227 12.2578V21.1875C144.227 21.9219 144.141 22.4297 143.969 22.7109C143.812 22.9922 143.516 23.1328 143.078 23.1328C142.719 23.1328 142.438 23.0234 142.234 22.8047C142.031 22.5859 141.867 22.2188 141.742 21.7031C141.477 20.625 141.094 19.7969 140.594 19.2188C140.109 18.6406 139.477 18.2578 138.695 18.0703ZM138.836 33V30.4688C139.852 30.3125 140.688 30.0938 141.344 29.8125C142.016 29.5312 142.688 29.1016 143.359 28.5234C144.031 27.9453 144.562 27.3516 144.953 26.7422C145.359 26.1172 145.742 25.2969 146.102 24.2812C146.273 23.7812 146.453 23.4453 146.641 23.2734C146.828 23.0859 147.086 22.9922 147.414 22.9922C147.852 22.9922 148.156 23.125 148.328 23.3906C148.5 23.6406 148.586 24.0859 148.586 24.7266V33H138.836ZM164.43 2.90625C163.633 3.1875 163.07 3.57031 162.742 4.05469C162.414 4.53906 162.25 5.25 162.25 6.1875V27.1406C162.25 28.5156 162.438 29.4844 162.812 30.0469C163.109 30.5156 163.648 30.8516 164.43 31.0547V33.6328C160.961 33.3516 158.055 32.0469 155.711 29.7188C152.664 26.6875 151.141 22.4609 151.141 17.0391C151.141 14.3203 151.539 11.8672 152.336 9.67969C153.148 7.47656 154.344 5.60937 155.922 4.07812C157.125 2.90625 158.422 2.01562 159.812 1.40625C161.203 0.796875 162.742 0.453125 164.43 0.375V2.90625ZM166.352 2.90625V0.375C168.039 0.453125 169.578 0.796875 170.969 1.40625C172.375 2.01562 173.68 2.90625 174.883 4.07812C178.07 7.1875 179.664 11.5078 179.664 17.0391C179.664 22.4609 178.141 26.6875 175.094 29.7188C172.75 32.0625 169.836 33.3672 166.352 33.6328V31.0547C166.758 30.9609 167.07 30.8438 167.289 30.7031C167.523 30.5469 167.734 30.3281 167.922 30.0469C168.344 29.4062 168.555 28.4375 168.555 27.1406V6.1875C168.555 5.35938 168.414 4.70313 168.133 4.21875C167.945 3.89062 167.719 3.63281 167.453 3.44531C167.203 3.25781 166.836 3.07812 166.352 2.90625ZM195.836 1.00781L208.305 22.6641V33H201.906L185.992 5.57812C185.648 4.98438 185.367 4.57031 185.148 4.33594C184.93 4.10156 184.648 3.92969 184.305 3.82031L183.414 3.49219C183.18 3.41406 182.992 3.27344 182.852 3.07031C182.711 2.86719 182.641 2.64063 182.641 2.39062C182.641 2.125 182.711 1.88281 182.852 1.66406C182.992 1.42969 183.18 1.26562 183.414 1.17188C183.68 1.0625 184.398 1.00781 185.57 1.00781H195.836ZM186.016 9.23438L188.5 13.3594V25.9219C188.5 27.0156 188.68 27.9141 189.039 28.6172C189.414 29.3203 190 29.8984 190.797 30.3516L191.5 30.75C191.906 30.9844 192.109 31.3359 192.109 31.8047C192.109 32.1641 191.961 32.4609 191.664 32.6953C191.414 32.8984 190.898 33 190.117 33H184.703C183.281 33 182.57 32.5938 182.57 31.7812C182.57 31.5 182.641 31.2812 182.781 31.125C182.938 30.9531 183.266 30.7266 183.766 30.4453C185.266 29.6172 186.016 28.1094 186.016 25.9219V9.23438ZM208.305 18.9141L205.82 14.7188V8.22656C205.82 6.91406 205.625 5.91406 205.234 5.22656C204.859 4.52344 204.188 3.92187 203.219 3.42188C202.891 3.26562 202.664 3.10156 202.539 2.92969C202.414 2.74219 202.352 2.50781 202.352 2.22656C202.352 1.80469 202.484 1.5 202.75 1.3125C203.031 1.10937 203.477 1.00781 204.086 1.00781H209.945C210.742 1.00781 211.266 1.13281 211.516 1.38281C211.781 1.63281 211.914 1.92969 211.914 2.27344C211.914 2.60156 211.836 2.85156 211.68 3.02344C211.539 3.17969 211.188 3.39844 210.625 3.67969C209.797 4.10156 209.172 4.75 208.75 5.625C208.453 6.26562 208.305 7.13281 208.305 8.22656V18.9141Z" fill="#002922"/>
</svg>
