<svg width="184" height="44" viewBox="0 0 184 44" fill="none" xmlns="http://www.w3.org/2000/svg">
<path d="M8.70664 43C8.54664 43 8.46664 42.9 8.46664 42.7V8.5H0.666641C0.466641 8.5 0.366641 8.4 0.366641 8.2L0.426641 1.48C0.426641 1.32 0.506641 1.24 0.666641 1.24H23.4666C23.6666 1.24 23.7666 1.32 23.7666 1.48V8.2C23.7666 8.4 23.6866 8.5 23.5266 8.5H15.6666L15.7266 42.7C15.7266 42.9 15.6466 43 15.4866 43H8.70664ZM26.9701 43C26.8101 43 26.7301 42.9 26.7301 42.7L26.8501 1.48C26.8501 1.32 26.9301 1.24 27.0901 1.24H39.2101C41.3701 1.24 43.3501 1.78 45.1501 2.86C46.9901 3.9 48.4501 5.32 49.5301 7.12C50.6101 8.88 51.1501 10.88 51.1501 13.12C51.1501 14.6 50.9301 15.94 50.4901 17.14C50.0501 18.3 49.5301 19.3 48.9301 20.14C48.3301 20.94 47.7901 21.54 47.3101 21.94C49.4701 24.34 50.5501 27.16 50.5501 30.4L50.6101 42.7C50.6101 42.9 50.5101 43 50.3101 43H43.5301C43.3701 43 43.2901 42.94 43.2901 42.82V30.4C43.2901 28.96 42.7701 27.72 41.7301 26.68C40.7301 25.6 39.4901 25.06 38.0101 25.06H34.0501L33.9901 42.7C33.9901 42.9 33.9101 43 33.7501 43H26.9701ZM34.0501 17.86H39.2101C40.4501 17.86 41.5501 17.4 42.5101 16.48C43.4701 15.56 43.9501 14.44 43.9501 13.12C43.9501 11.84 43.4701 10.74 42.5101 9.82C41.5901 8.9 40.4901 8.44 39.2101 8.44H34.0501V17.86ZM53.6354 42.7L61.0754 1.48C61.1154 1.32 61.2154 1.24 61.3754 1.24H70.0754C70.2354 1.24 70.3354 1.32 70.3754 1.48L77.5154 42.7C77.5554 42.9 77.4754 43 77.2754 43H70.6154C70.4554 43 70.3554 42.9 70.3154 42.7L69.6554 38.32H61.4954L60.8354 42.7C60.7954 42.9 60.6954 43 60.5354 43H53.8754C53.7154 43 53.6354 42.9 53.6354 42.7ZM62.6954 31.9H68.4554L65.9954 15.04L65.6354 12.82L65.3954 15.04L62.6954 31.9ZM81.5809 43C81.3809 43 81.2809 42.9 81.2809 42.7L81.4009 1.48C81.4009 1.32 81.4809 1.24 81.6409 1.24L92.8609 1.18C95.0609 1.14 97.0609 1.66 98.8609 2.74C100.701 3.82 102.161 5.28 103.241 7.12C104.321 8.92 104.861 10.92 104.861 13.12V30.34C104.861 32.66 104.301 34.78 103.181 36.7C102.061 38.58 100.561 40.08 98.6809 41.2C96.8009 42.32 94.6809 42.9 92.3209 42.94L81.5809 43ZM88.6009 35.62H92.3209C93.8009 35.62 95.0409 35.1 96.0409 34.06C97.0809 33.02 97.6009 31.78 97.6009 30.34V13.06C97.6009 11.78 97.1209 10.68 96.1609 9.76C95.2409 8.8 94.1409 8.34 92.8609 8.38L88.6609 8.44L88.6009 35.62ZM109.822 43C109.662 43 109.582 42.9 109.582 42.7L109.642 1.48C109.642 1.32 109.722 1.24 109.882 1.24H129.142C129.302 1.24 129.382 1.34 129.382 1.54V8.26C129.382 8.42 129.302 8.5 129.142 8.5H116.842V17.86H129.142C129.302 17.86 129.382 17.94 129.382 18.1L129.442 24.88C129.442 25.04 129.362 25.12 129.202 25.12H116.842V35.62H129.202C129.362 35.62 129.442 35.72 129.442 35.92V42.76C129.442 42.92 129.362 43 129.202 43H109.822ZM144.939 43.6C142.779 43.6 140.799 43.06 138.999 41.98C137.239 40.86 135.819 39.4 134.739 37.6C133.659 35.76 133.119 33.74 133.119 31.54L133.179 12.52C133.179 10.32 133.699 8.32 134.739 6.52C135.819 4.72 137.259 3.28 139.059 2.2C140.859 1.12 142.819 0.579999 144.939 0.579999C147.099 0.579999 149.059 1.12 150.819 2.2C152.579 3.28 153.979 4.72 155.019 6.52C156.099 8.32 156.639 10.32 156.639 12.52L156.699 31.54C156.699 33.74 156.159 35.76 155.079 37.6C154.039 39.4 152.619 40.86 150.819 41.98C149.059 43.06 147.099 43.6 144.939 43.6ZM144.939 36.34C146.139 36.34 147.179 35.86 148.059 34.9C148.979 33.9 149.439 32.78 149.439 31.54L149.379 12.52C149.379 11.2 148.959 10.08 148.119 9.16C147.279 8.24 146.219 7.78 144.939 7.78C143.699 7.78 142.639 8.24 141.759 9.16C140.879 10.04 140.439 11.16 140.439 12.52V31.54C140.439 32.86 140.879 34 141.759 34.96C142.639 35.88 143.699 36.34 144.939 36.34ZM161.801 43C161.481 43 161.321 42.86 161.321 42.58L161.261 1.72C161.261 1.4 161.421 1.24 161.741 1.24H167.141L177.281 24.88L176.981 1.72C176.981 1.4 177.161 1.24 177.521 1.24H183.461C183.701 1.24 183.821 1.4 183.821 1.72L183.881 42.64C183.881 42.88 183.781 43 183.581 43H178.301L167.921 20.92L168.341 42.52C168.341 42.84 168.161 43 167.801 43H161.801Z" fill="#3C3636"/>
</svg>
